# xmcd
#
# Track frame offsets:
#       150
#       11550
#       26924
#       38399
#       51149
#       63299
#       76097
#       90197
#       101747
#       109997
#       126047
#       139772
#
# Disc length: 2108 seconds
#
# Revision: 1
# Processed by: cddbd v1.5.1PL0 Copyright (c) Steve Scherf et al.
# Submitted via: MusiCat 1.1
#
DISCID=8d083a0c
DTITLE=Judy Collins - A Maid Of Constant Sorrow
DYEAR=1965
DGENRE=
TTITLE0=Maid of Constant Sorrow
TTITLE1=The prickelie Bush
TTITLE2=Wild Mountain Thyme
TTITLE3=Tim Evans
TTITLE4=Sailor's Life
TTITLE5=Bold Fenian Men
TTITLE6=Wars of High Germany
TTITLE7=O Daddy Be Gay
TTITLE8=I Know Where I'm Going
TTITLE9=John Riley
TTITLE10=Pretty Saro
TTITLE11=Rising Of The Moon
EXTD=Elektra\n\nFrom vinyl\n
EXTT0=
EXTT1=
EXTT2=
EXTT3=
EXTT4=
EXTT5=
EXTT6=
EXTT7=
EXTT8=
EXTT9=
EXTT10=
EXTT11=
PLAYORDER=
